<?xml version="1.0" encoding="UTF-8"?>
<svg xmlns="http://www.w3.org/2000/svg" xmlns:xlink="http://www.w3.org/1999/xlink" width="10pt" height="10pt" viewBox="0 0 10 10" version="1.1">
<g id="surface1">
<path style="stroke:none;fill-rule:nonzero;fill:#fff;fill-opacity:1;" d="M 6.378906 2.558594 C 6.378906 2.605469 6.363281 2.648438 6.324219 2.6875 L 4.132812 4.878906 L 6.324219 7.070312 C 6.363281 7.109375 6.378906 7.152344 6.378906 7.199219 C 6.378906 7.25 6.363281 7.292969 6.324219 7.328125 L 6.046875 7.609375 C 6.007812 7.644531 5.964844 7.664062 5.917969 7.664062 C 5.867188 7.664062 5.824219 7.644531 5.789062 7.609375 L 3.1875 5.007812 C 3.152344 4.96875 3.132812 4.925781 3.132812 4.878906 C 3.132812 4.832031 3.152344 4.789062 3.1875 4.75 L 5.789062 2.148438 C 5.824219 2.113281 5.867188 2.09375 5.917969 2.09375 C 5.964844 2.09375 6.007812 2.113281 6.046875 2.148438 L 6.324219 2.429688 C 6.363281 2.464844 6.378906 2.507812 6.378906 2.558594 Z M 6.378906 2.558594 "/>
</g>
</svg>
