<?xml version="1.0" encoding="UTF-8"?>
<svg xmlns="http://www.w3.org/2000/svg" xmlns:xlink="http://www.w3.org/1999/xlink" width="10pt" height="10pt" viewBox="0 0 10 10" version="1.1">
<g id="surface1">
<path style=" stroke:none;fill-rule:nonzero;fill:#fff;fill-opacity:1;" d="M 6.539062 4.964844 C 6.539062 5.011719 6.523438 5.054688 6.484375 5.09375 L 3.882812 7.691406 C 3.847656 7.730469 3.804688 7.75 3.757812 7.75 C 3.707031 7.75 3.664062 7.730469 3.628906 7.691406 L 3.347656 7.414062 C 3.3125 7.375 3.292969 7.332031 3.292969 7.285156 C 3.292969 7.238281 3.3125 7.195312 3.347656 7.15625 L 5.542969 4.964844 L 3.347656 2.769531 C 3.3125 2.734375 3.292969 2.691406 3.292969 2.640625 C 3.292969 2.59375 3.3125 2.550781 3.347656 2.515625 L 3.628906 2.234375 C 3.664062 2.199219 3.707031 2.179688 3.757812 2.179688 C 3.804688 2.179688 3.847656 2.199219 3.882812 2.234375 L 6.484375 4.835938 C 6.523438 4.871094 6.539062 4.914062 6.539062 4.964844 Z M 6.539062 4.964844 "/>
</g>
</svg>
